HIERARCHY
ROOT joint_Root
{
	OFFSET 0.0 0.0 0.0
	CHANNELS 6 Xposition Yposition Zposition Zrotation Xrotation Yrotation 
	JOINT Hips
	{
		OFFSET 4.5925 91.4895 -427.239
		CHANNELS 6 Xposition Yposition Zposition Zrotation Xrotation Yrotation 
		JOINT Spine
		{
			OFFSET 15.7357 0.0 0.0
			CHANNELS 6 Xposition Yposition Zposition Zrotation Xrotation Yrotation 
			JOINT Chest
			{
				OFFSET 8.98455 -0.406207 0.0
				CHANNELS 6 Xposition Yposition Zposition Zrotation Xrotation Yrotation 
				JOINT Neck
				{
					OFFSET 16.3773 0.0 0.0
					CHANNELS 6 Xposition Yposition Zposition Zrotation Xrotation Yrotation 
					JOINT Head
					{
						OFFSET 6.45672 0.0 0.0
						CHANNELS 6 Xposition Yposition Zposition Zrotation Xrotation Yrotation 
						End Site
						{
							OFFSET 0.0 0.0 0.0
						}
					}
				}
				JOINT Shoulder_L
				{
					OFFSET 12.9942 -0.242716 4.98039
					CHANNELS 6 Xposition Yposition Zposition Zrotation Xrotation Yrotation 
					JOINT UpperArm_L
					{
						OFFSET 5.34809 0.0 0.0
						CHANNELS 6 Xposition Yposition Zposition Zrotation Xrotation Yrotation 
						JOINT LowerArm_L
						{
							OFFSET 24.3286 1.87007e-05 0.0
							CHANNELS 6 Xposition Yposition Zposition Zrotation Xrotation Yrotation 
							JOINT Hand_L
							{
								OFFSET 22.2916 0.0 0.0
								CHANNELS 6 Xposition Yposition Zposition Zrotation Xrotation Yrotation 
								End Site
								{
									OFFSET 0.0 0.0 0.0
								}
							}
						}
					}
				}
				JOINT Shoulder_R
				{
					OFFSET 12.9945 -0.242716 -4.98039
					CHANNELS 6 Xposition Yposition Zposition Zrotation Xrotation Yrotation 
					JOINT UpperArm_R
					{
						OFFSET -5.34813 0.0 0.0
						CHANNELS 6 Xposition Yposition Zposition Zrotation Xrotation Yrotation 
						JOINT LowerArm_R
						{
							OFFSET -24.3289 0.000322201 0.0
							CHANNELS 6 Xposition Yposition Zposition Zrotation Xrotation Yrotation 
							JOINT Hand_R
							{
								OFFSET -22.2915 -0.000108084 0.0
								CHANNELS 6 Xposition Yposition Zposition Zrotation Xrotation Yrotation 
								End Site
								{
									OFFSET 0.0 0.0 0.0
								}
							}
						}
					}
				}
			}
		}
		JOINT UpperLeg_L
		{
			OFFSET -2.19248 -6.46944 0.0
			CHANNELS 6 Xposition Yposition Zposition Zrotation Xrotation Yrotation 
			JOINT LowerLeg_L
			{
				OFFSET 39.0811 0.0 -1.23785e-05
				CHANNELS 6 Xposition Yposition Zposition Zrotation Xrotation Yrotation 
				JOINT Foot_L
				{
					OFFSET 40.9854 0.0 -1.26872e-05
					CHANNELS 6 Xposition Yposition Zposition Zrotation Xrotation Yrotation 
					JOINT Toes_L
					{
						OFFSET 11.7543 0.0 0.0
						CHANNELS 6 Xposition Yposition Zposition Zrotation Xrotation Yrotation 
						End Site
						{
							OFFSET 0.0 0.0 0.0
						}
					}
				}
			}
		}
		JOINT UpperLeg_R
		{
			OFFSET -2.19251 6.46944 0.0
			CHANNELS 6 Xposition Yposition Zposition Zrotation Xrotation Yrotation 
			JOINT LowerLeg_R
			{
				OFFSET -39.0811 -0.00228153 -0.0401928
				CHANNELS 6 Xposition Yposition Zposition Zrotation Xrotation Yrotation 
				JOINT Foot_R
				{
					OFFSET -40.9854 0.0 0.0
					CHANNELS 6 Xposition Yposition Zposition Zrotation Xrotation Yrotation 
					JOINT Toes_R
					{
						OFFSET -11.7543 0.0 0.0
						CHANNELS 6 Xposition Yposition Zposition Zrotation Xrotation Yrotation 
						End Site
						{
							OFFSET 0.0 0.0 0.0
						}
					}
				}
			}
		}
	}
}
MOTION
Frames:	6
Frame Time:	0.0333333
0.000000 0.000000 0.000000 0.000000 0.000000 -0.000000 0.768194 84.960700 22.511700 -86.160700 -4.408090 -177.773000 15.735700 0.000005 -0.000001 65.942300 80.872700 -62.862700 8.984550 -0.406207 -0.000000 9.165840 -7.364690 6.752000 16.377300 -0.000001 -0.000001 -1.759690 -2.715040 2.158080 6.456720 -0.000001 -0.000000 -5.690320 1.476500 -1.455720 12.994200 -0.242716 4.980390 -90.748700 2.663660 -74.292900 5.348090 -0.000007 -0.000001 -71.281100 29.546500 -19.655500 24.328600 0.000019 0.000005 6.648800 2.163590 -72.189400 22.291600 -0.000001 0.000005 10.430200 5.517980 -7.275710 12.994500 -0.242716 -4.980390 86.432500 13.119200 -74.641500 -5.348130 -0.000001 -0.000004 -54.482900 33.421500 -3.002510 -24.328900 0.000322 -0.000009 -24.552100 -6.088810 -76.952500 -22.291500 -0.000108 -0.000004 25.083300 5.644410 -14.517900 -2.192480 -6.469440 -0.000000 -170.572000 -5.841050 -2.842580 39.081100 -0.000007 -0.000012 0.147464 -0.065314 66.109000 40.985400 -0.000006 -0.000013 1.295950 -2.801720 -32.086700 11.754300 -0.000000 0.000003 -0.007263 -0.081912 -19.911600 -2.192510 6.469440 -0.000001 -171.674000 16.647300 151.932000 -39.081100 -0.002282 -0.040193 -0.162151 0.124620 53.001900 -40.985400 0.000008 0.000006 8.532080 -3.537000 -74.559700 -11.754300 -0.000006 -0.000006 -0.001466 -0.021825 -17.460600
0.000000 0.000000 0.000000 0.000000 0.000000 -0.000000 0.630643 86.090200 17.885500 -87.024800 -0.980004 -177.374000 15.735700 0.000005 -0.000001 77.344600 81.430900 -74.655900 8.984550 -0.406207 -0.000000 9.063030 -3.704520 5.668210 16.377300 -0.000001 -0.000001 -0.946246 -3.475940 2.558140 6.456720 -0.000001 -0.000000 -4.914000 0.272759 -2.595550 12.994200 -0.242716 4.980390 -90.840300 3.035720 -74.521300 5.348090 -0.000007 -0.000001 -73.810300 26.037700 -5.033720 24.328600 0.000019 0.000005 12.235500 4.906290 -68.494100 22.291600 -0.000001 0.000005 7.319450 5.549360 -8.689680 12.994500 -0.242716 -4.980390 87.315100 10.351900 -75.375700 -5.348130 -0.000001 -0.000004 -56.051300 37.486300 -16.210200 -24.328900 0.000322 -0.000009 -16.927700 -0.790436 -87.418200 -22.291500 -0.000108 -0.000004 22.882200 5.642030 -14.290400 -2.192480 -6.469440 -0.000000 -173.844000 -7.120910 -9.500270 39.081100 -0.000007 -0.000012 0.053127 -0.014308 74.920500 40.985400 -0.000006 -0.000013 6.113370 -6.804730 -39.702100 11.754300 -0.000000 0.000003 -0.009844 -0.102481 -20.752000 -2.192510 6.469440 -0.000001 -173.577000 15.913200 158.003000 -39.081100 -0.002282 -0.040193 -0.024603 0.023491 49.854200 -40.985400 0.000008 0.000006 9.561060 -1.305800 -76.730600 -11.754300 -0.000006 -0.000006 -0.001113 -0.017000 -17.264400
0.000000 0.000000 0.000000 0.000000 0.000000 -0.000000 0.425367 87.826000 13.445100 -88.181600 2.226710 -177.894000 15.735700 0.000005 -0.000001 87.212500 81.850300 -85.463900 8.984550 -0.406207 -0.000000 8.528880 -0.777223 3.551910 16.377300 -0.000001 -0.000001 0.317285 -3.726450 3.307090 6.456720 -0.000001 -0.000000 -4.817700 -1.595600 -2.302130 12.994200 -0.242716 4.980390 -90.894300 2.836810 -72.484500 5.348090 -0.000007 -0.000001 -67.873900 32.481200 7.020140 24.328600 0.000019 0.000005 0.503528 0.141812 -74.936700 22.291600 -0.000001 0.000005 4.497040 5.542660 -8.355200 12.994500 -0.242716 -4.980390 88.355900 7.213740 -77.128400 -5.348130 -0.000001 -0.000004 -55.043000 40.316800 -31.163200 -24.328900 0.000322 -0.000009 -15.182600 2.067140 -97.570100 -22.291500 -0.000108 -0.000004 21.694000 5.634660 -13.692100 -2.192480 -6.469440 -0.000000 -177.146000 -8.023200 -16.745300 39.081100 -0.000007 -0.000012 -0.010956 0.002252 78.419500 40.985400 -0.000006 -0.000013 8.005150 -9.107770 -44.846900 11.754300 -0.000000 0.000003 -0.008911 -0.095325 -20.459500 -2.192510 6.469440 -0.000001 -175.892000 15.496000 164.082000 -39.081100 -0.002282 -0.040193 0.084608 -0.084677 43.848700 -40.985400 0.000008 0.000006 10.302800 1.669370 -76.792200 -11.754300 -0.000006 -0.000006 -0.001635 -0.024044 -17.550800
0.000000 0.000000 0.000000 0.000000 0.000000 -0.000000 0.024673 89.670300 9.105750 -89.787200 4.837520 -179.016000 15.735700 0.000005 -0.000001 98.547600 82.177100 -97.930300 8.984550 -0.406207 -0.000000 7.698540 2.315740 1.077530 16.377300 -0.000001 -0.000001 1.581660 -4.048990 3.445390 6.456720 -0.000001 -0.000000 -4.760240 -4.496700 -2.064530 12.994200 -0.242716 4.980390 -90.103100 0.280100 -69.664600 5.348090 -0.000007 -0.000001 -64.972000 39.579900 16.194300 24.328600 0.000019 0.000005 -1.069020 -0.158892 -81.688100 22.291600 -0.000001 0.000005 3.210600 5.541160 -8.293700 12.994500 -0.242716 -4.980390 89.319300 3.251060 -78.168100 -5.348130 -0.000001 -0.000004 -53.123800 39.642900 -44.911600 -24.328900 0.000322 -0.000009 -14.444600 4.254600 -106.069000 -22.291500 -0.000108 -0.000004 21.827500 5.621510 -12.728500 -2.192480 -6.469440 -0.000000 179.278000 -7.690390 -23.651900 39.081100 -0.000007 -0.000012 -0.051112 0.011628 77.190800 40.985400 -0.000006 -0.000013 8.692340 -10.680200 -48.895700 11.754300 -0.000000 0.000003 -0.009629 -0.100852 -20.685400 -2.192510 6.469440 -0.000001 -178.945000 15.495900 169.560000 -39.081100 -0.002282 -0.040193 0.060790 -0.077369 36.620800 -40.985400 0.000008 0.000006 9.682090 5.147320 -74.758500 -11.754300 -0.000006 -0.000006 -0.303022 -0.386843 -18.341400
0.000000 0.000000 0.000000 0.000000 0.000000 -0.000000 -0.368355 91.199800 4.627550 -91.600000 6.646150 179.977000 15.735700 0.000005 -0.000001 109.974000 82.120200 -110.491000 8.984550 -0.406207 -0.000000 7.093750 5.367540 -1.367390 16.377300 -0.000001 -0.000001 3.037560 -4.684830 3.258780 6.456720 -0.000001 -0.000000 -5.267510 -7.046780 -2.282720 12.994200 -0.242716 4.980390 -88.741800 -3.019380 -67.378900 5.348090 -0.000007 -0.000001 -63.168400 45.158400 22.898900 24.328600 0.000019 0.000005 1.524910 0.063939 -87.608600 22.291600 -0.000001 0.000005 0.568904 5.533210 -7.930370 12.994500 -0.242716 -4.980390 90.164700 -0.793065 -78.262900 -5.348130 -0.000001 -0.000004 -51.459300 35.935000 -55.285000 -24.328900 0.000322 -0.000009 -12.808100 5.740430 -113.753000 -22.291500 -0.000108 -0.000004 21.662000 5.593830 -10.975600 -2.192480 -6.469440 -0.000000 176.457000 -5.687870 -28.715700 39.081100 -0.000007 -0.000012 -0.053659 0.017683 71.767200 40.985400 -0.000006 -0.000013 8.392860 -10.658500 -53.528300 11.754300 -0.000000 0.000003 -0.008668 -0.093409 -20.381200 -2.192510 6.469440 -0.000001 177.707000 16.150300 174.397000 -39.081100 -0.002282 -0.040193 0.037601 -0.059154 30.106700 -40.985400 0.000008 0.000006 9.248720 8.423510 -71.054200 -11.754300 -0.000006 -0.000006 -1.461760 -1.668130 -21.025900
0.000000 0.000000 0.000000 0.000000 0.000000 -0.000000 -0.636053 92.165900 0.446898 -92.427500 7.447070 178.790000 15.735700 0.000005 -0.000001 117.930000 81.826700 -119.212000 8.984550 -0.406207 -0.000000 6.809990 7.642560 -3.020670 16.377300 -0.000001 -0.000001 3.916560 -4.960580 2.551300 6.456720 -0.000001 -0.000000 -6.090010 -9.090200 -1.949670 12.994200 -0.242716 4.980390 -86.943000 -6.625280 -65.165500 5.348090 -0.000007 -0.000001 -61.966200 48.890100 27.010800 24.328600 0.000019 0.000005 0.750221 -0.024154 -91.849100 22.291600 -0.000001 0.000005 -0.846133 5.524160 -7.539270 12.994500 -0.242716 -4.980390 90.915500 -4.361290 -78.132400 -5.348130 -0.000001 -0.000004 -51.025100 30.334000 -62.127800 -24.328900 0.000322 -0.000009 -10.787900 6.377030 -120.238000 -22.291500 -0.000108 -0.000004 20.826500 5.572870 -9.834100 -2.192480 -6.469440 -0.000000 175.916000 -3.170410 -32.456500 39.081100 -0.000007 -0.000012 -0.027938 0.014328 62.857000 40.985400 -0.000006 -0.000013 7.607420 -9.454290 -56.944400 11.754300 -0.000000 0.000003 -0.008648 -0.093248 -20.374600 -2.192510 6.469440 -0.000001 175.041000 19.933500 178.110000 -39.081100 -0.002282 -0.040193 0.020998 -0.037036 25.527400 -40.985400 0.000008 0.000006 9.359420 13.298200 -68.297100 -11.754300 -0.000006 -0.000006 -0.115676 -0.245322 -22.628700
